<?xml version="1.0" encoding="UTF-8"?>
<svg version="1.1" xmlns="http://www.w3.org/2000/svg" width="152" height="128">
<path d="M0 0 C0 0.99 0 1.98 0 3 C0.99 3 1.98 3 3 3 C3 3.66 3 4.32 3 5 C4.32 5.33 5.64 5.66 7 6 C7 6.99 7 7.98 7 9 C7.66 9.33 8.32 9.66 9 10 C9 10.99 9 11.98 9 13 C9.99 13 10.98 13 12 13 C12 14.32 12 15.64 12 17 C12.99 17.33 13.98 17.66 15 18 C15 18.99 15 19.98 15 21 C15.66 21 16.32 21 17 21 C17 22.32 17 23.64 17 25 C17.66 25.33 18.32 25.66 19 26 C19 26.99 19 27.98 19 29 C19.99 28.67 20.98 28.34 22 28 C24.0625 28.875 24.0625 28.875 26 30 C26.66 30.33 27.32 30.66 28 31 C29.1875 33.9375 29.1875 33.9375 30 37 C29.505 37.99 29.505 37.99 29 39 C29.99 39 30.98 39 32 39 C32 39.99 32 40.98 32 42 C32.66 42.04125 33.32 42.0825 34 42.125 C37.02709086 43.0079015 38.23628144 43.86122167 40.625 45.8125 C51.35521883 54.20743668 65.20090896 55.34954702 78.33837891 54.92675781 C80.22518911 54.88100126 82.11381903 54.93315859 84 55 C87.79582772 58.79582772 87.1804252 64.6246564 87.25 69.75 C87.06581176 81.46437208 84.15674454 88.03977493 75.90234375 96.296875 C61.18272868 110.00612618 44.05133342 111.78098325 24.76123047 111.14355469 C9.77267601 110.36430889 -3.95924683 105.00149233 -14.87109375 94.5390625 C-22.59399996 85.32825692 -24.77524245 75.68401114 -24 64 C-23.05628957 58.36549363 -21.75325578 53.30996266 -18.96484375 48.31640625 C-16.44485659 43.42152562 -16.15049175 38.61435627 -15.8125 33.1875 C-15.67602636 31.32661176 -15.5368246 29.46592103 -15.39453125 27.60546875 C-15.31489136 26.38573364 -15.31489136 26.38573364 -15.23364258 25.14135742 C-15 23 -15 23 -14 20 C-14.020625 19.154375 -14.04125 18.30875 -14.0625 17.4375 C-14 15 -14 15 -12 13 C-12.226875 12.401875 -12.45375 11.80375 -12.6875 11.1875 C-12.8421875 10.1046875 -12.8421875 10.1046875 -13 9 C-10.8125 6.5 -10.8125 6.5 -8 4 C-7.319375 3.236875 -6.63875 2.47375 -5.9375 1.6875 C-4 0 -4 0 0 0 Z M-4.375 58.0625 C-6.83289714 60.99306967 -7 63.22089384 -7 67 C-5.00630003 70.82125828 -3.66488116 71.78240253 0.4375 73.125 C4.12891339 73.33863659 4.12891339 73.33863659 6.875 70.8125 C9.38707342 67.70417228 9.38707342 67.70417228 10 64 C8.6007781 61.20155619 7.21208617 59.21208617 5 57 C1.46377389 56.67257166 -1.10695442 56.60047961 -4.375 58.0625 Z M57.1875 60.5 C54.34034872 63.75388717 53.92451094 65.69712377 54 70 C55.79878158 73.18245972 57.05109581 74.61070597 60.4375 76 C63.76878143 76 65.3382363 74.9423681 68 73 C70.27208703 71.13287971 70.27208703 71.13287971 70.375 68.1875 C69.90647335 64.2050235 68.93704498 62.70517301 66 60 C62.21331469 58.63034787 60.75779651 58.59584186 57.1875 60.5 Z M27 87 C27.66 88.98 28.32 90.96 29 93 C21.57142857 93.28571429 21.57142857 93.28571429 18 91 C18.56362302 93.04836882 18.56362302 93.04836882 20 95 C24.29381245 96.26862641 27.66095047 95.7889181 32 95 C32.66 95.33 33.32 95.66 34 96 C37.74401272 96.4069579 39.36787347 96.49904726 42.375 94.125 C44.20248337 92.18106686 44.20248337 92.18106686 44 90 C43.34 90 42.68 90 42 90 C41.5875 90.66 41.175 91.32 40.75 92 C39 94 39 94 35.8125 94.25 C34.884375 94.1675 33.95625 94.085 33 94 C33.66 91.69 34.32 89.38 35 87 C32.36 87 29.72 87 27 87 Z " fill="#FFFFFF" transform="translate(45,9)"/>
<path d="M0 0 C5.75035492 3.85115513 10.43339862 8.30653221 13.53515625 14.54296875 C17.18437373 22.2068114 17.18437373 22.2068114 23.48144531 27.53027344 C28.77998775 29.1366606 34.18687531 29.40156403 39.4375 27.5 C43.5156432 24.62779803 45.90397666 20.37707633 48.39794922 16.15332031 C52.4702813 9.67660992 59.1796822 3.82829081 66.6640625 1.9375 C70.37150924 1.3423246 73.0392167 1.39276988 76.6875 2.375 C83.45050929 7.60096173 85.38629957 15.34699391 86.4375 23.5 C86.77159454 29.51167934 86.84016978 35.52792056 86.89379883 41.54760742 C86.9774974 49.45482272 87.33685692 56.78269544 89.80102539 64.36547852 C90.4375 66.5 90.4375 66.5 90.4375 69.5 C91.0975 69.17 91.7575 68.84 92.4375 68.5 C99.70538686 67.92318358 99.70538686 67.92318358 102.5 70.125 C103.76618536 73.33266959 103.43299067 75.2291021 102.4375 78.5 C101.4475 79.16 100.4575 79.82 99.4375 80.5 C100.4275 81.2734375 100.4275 81.2734375 101.4375 82.0625 C103.4375 84.5 103.4375 84.5 104 88 C103.4375 91.5 103.4375 91.5 100.9375 93.9375 C100.1125 94.453125 99.2875 94.96875 98.4375 95.5 C98.7675 95.83 99.0975 96.16 99.4375 96.5 C100.01442308 102.73076923 100.01442308 102.73076923 97.9375 105.5 C93.33477703 107.34108919 88.92929906 106.0283455 84.4375 104.4375 C83.4475 103.9734375 83.4475 103.9734375 82.4375 103.5 C82.19 104.07878906 81.9425 104.65757813 81.6875 105.25390625 C76.25295195 115.01910977 64.925971 119.59815594 54.77050781 122.57324219 C32.09314003 128.81695131 8.92872395 127.619586 -11.9375 116.25 C-19.31673408 111.68901591 -25.2939015 106.07975434 -29.5625 98.5 C-30.861875 98.995 -30.861875 98.995 -32.1875 99.5 C-36.52867959 100.78627543 -39.76429864 101.35177959 -43.9375 99.375 C-45.5625 97.5 -45.5625 97.5 -45.875 94.5625 C-45.5625 91.5 -45.5625 91.5 -44.8125 89.375 C-44.73 88.75625 -44.6475 88.1375 -44.5625 87.5 C-45.2225 86.88125 -45.8825 86.2625 -46.5625 85.625 C-48.5625 83.5 -48.5625 83.5 -48.5625 80.375 C-47.5625 77.5 -47.5625 77.5 -45.5 76.125 C-44.5409375 75.815625 -44.5409375 75.815625 -43.5625 75.5 C-44.078125 74.819375 -44.59375 74.13875 -45.125 73.4375 C-46.964292 69.67894678 -46.48841624 67.51230371 -45.5625 63.5 C-44.5625 62.5 -44.5625 62.5 -42.6015625 62.3671875 C-41.80492187 62.36976562 -41.00828125 62.37234375 -40.1875 62.375 C-39.39601563 62.37242188 -38.60453125 62.36984375 -37.7890625 62.3671875 C-35.5625 62.5 -35.5625 62.5 -32.5625 63.5 C-32.45292969 62.90832031 -32.34335937 62.31664062 -32.23046875 61.70703125 C-32.07191406 60.91683594 -31.91335937 60.12664063 -31.75 59.3125 C-31.59917969 58.53519531 -31.44835937 57.75789063 -31.29296875 56.95703125 C-30.5625 54.5 -30.5625 54.5 -29.0559082 52.21972656 C-27.34969009 49.11244034 -27.10525456 47.04991359 -26.9375 43.52734375 C-26.87046875 42.37943359 -26.8034375 41.23152344 -26.734375 40.04882812 C-26.67765625 38.85708984 -26.6209375 37.66535156 -26.5625 36.4375 C-25.47751396 14.158298 -25.47751396 14.158298 -19.625 4.875 C-18.89990234 3.68003906 -18.89990234 3.68003906 -18.16015625 2.4609375 C-13.52291191 -3.23074137 -6.22814262 -2.62237584 0 0 Z M-14.0390625 6.71875 C-21.88142466 15.88828114 -21.42868254 31.78668847 -21.875 43.25 C-22.2291458 49.47378445 -23.72118399 54.20615597 -26.3515625 59.82421875 C-27.9382044 63.33018552 -28.76809002 66.74460739 -29.5625 70.5 C-33.5117568 69.94894091 -36.91170174 69.11064629 -40.5625 67.5 C-39.89622488 70.61596912 -39.89622488 70.61596912 -37.49609375 71.66796875 C-36.67238281 72.00441406 -35.84867188 72.34085937 -35 72.6875 C-33.76056641 73.20376953 -33.76056641 73.20376953 -32.49609375 73.73046875 C-31.85800781 73.98441406 -31.21992188 74.23835938 -30.5625 74.5 C-30.5625 76.48 -30.5625 78.46 -30.5625 80.5 C-34.5225 80.5 -38.4825 80.5 -42.5625 80.5 C-42.5625 81.16 -42.5625 81.82 -42.5625 82.5 C-35.6325 82.995 -35.6325 82.995 -28.5625 83.5 C-28.5625 85.48 -28.5625 87.46 -28.5625 89.5 C-29.243125 89.603125 -29.92375 89.70625 -30.625 89.8125 C-34.19165989 90.64725019 -37.22472194 91.99472754 -40.5625 93.5 C-40.5625 94.16 -40.5625 94.82 -40.5625 95.5 C-39.95921875 95.29503906 -39.3559375 95.09007813 -38.734375 94.87890625 C-37.93515625 94.60949219 -37.1359375 94.34007813 -36.3125 94.0625 C-35.52359375 93.79566406 -34.7346875 93.52882813 -33.921875 93.25390625 C-31.81428012 92.58045292 -29.71496027 92.00849405 -27.5625 91.5 C-27.13839844 92.14066406 -26.71429688 92.78132813 -26.27734375 93.44140625 C-16.1802675 108.3318198 -4.78303861 115.09392947 12.4375 119.5 C25.92103009 121.96990931 40.31090377 121.37869747 53.4375 117.5 C54.30246094 117.25636719 55.16742188 117.01273437 56.05859375 116.76171875 C65.33083485 113.63141015 74.84109754 106.48906728 80.4375 98.5 C80.4375 97.84 80.4375 97.18 80.4375 96.5 C81.85541408 96.95445964 83.27178046 97.41374944 84.6875 97.875 C85.87085938 98.25785156 85.87085938 98.25785156 87.078125 98.6484375 C89.30377958 99.45173667 91.34681672 100.39711662 93.4375 101.5 C91.96190331 97.07320993 89.53692632 96.58567304 85.4375 94.5 C84.7775 94.5 84.1175 94.5 83.4375 94.5 C83.7675 92.85 84.0975 91.2 84.4375 89.5 C88.7275 89.17 93.0175 88.84 97.4375 88.5 C97.1075 87.84 96.7775 87.18 96.4375 86.5 C94.08150765 86.03248212 94.08150765 86.03248212 91.375 85.875 C90.45589844 85.80023438 89.53679687 85.72546875 88.58984375 85.6484375 C87.52443359 85.57496094 87.52443359 85.57496094 86.4375 85.5 C86.4375 83.85 86.4375 82.2 86.4375 80.5 C90.0675 78.85 93.6975 77.2 97.4375 75.5 C93.64210255 74.55115064 92.69155292 74.44468501 89.1875 75.4375 C87.95 75.788125 86.7125 76.13875 85.4375 76.5 C85.38142578 75.46552734 85.38142578 75.46552734 85.32421875 74.41015625 C85.25847656 73.47042969 85.19273437 72.53070313 85.125 71.5625 C85.06699219 70.64597656 85.00898438 69.72945313 84.94921875 68.78515625 C84.51402337 65.99126838 83.89129041 63.94973299 82.8984375 61.34375 C80.98471591 55.84862694 81.18827441 50.69418074 81.375 44.9375 C82.0239523 25.89323001 82.0239523 25.89323001 75.125 8.625 C72.33490814 6.76493876 70.73551785 6.93995923 67.4375 7.5 C64.55160669 9.24851183 62.01706754 11.33296446 59.4375 13.5 C58.62667969 14.10328125 57.81585938 14.7065625 56.98046875 15.328125 C54.08903386 17.79761471 52.04765543 20.4276214 49.8125 23.5 C49.05710937 24.53125 48.30171875 25.5625 47.5234375 26.625 C45.44475989 29.33574688 45.44475989 29.33574688 44.2109375 31.890625 C42.4375 33.5 42.4375 33.5 38.453125 33.671875 C36.86286731 33.55220678 35.27413611 33.4107043 33.6875 33.25 C32.10951797 33.11807035 30.53139298 32.98783867 28.953125 32.859375 C28.19451172 32.79298828 27.43589844 32.72660156 26.65429688 32.65820312 C23.5723609 32.4382588 20.52603202 32.45045136 17.4375 32.5 C16.98761719 31.62859375 16.53773437 30.7571875 16.07421875 29.859375 C10.51764099 19.44189478 3.75359331 8.23881218 -7.5625 3.5 C-10.42004745 3.5 -11.9531866 4.88724921 -14.0390625 6.71875 Z " fill="#FFFFFF" transform="translate(48.5625,1.5)"/>
<path d="M0 0 C0.99 0.33 1.98 0.66 3 1 C1.71034824 2.37562854 0.37310707 3.70766393 -1 5 C-1.66 5 -2.32 5 -3 5 C-2.625 3.0625 -2.625 3.0625 -2 1 C-1.34 0.67 -0.68 0.34 0 0 Z " fill="#FFFFFF" transform="translate(38,8)"/>
</svg>
